PathFileType	4	(X/Y/Z)	D:\TRACE\spotREDO_2-26-24\spot_Both_Motion_1_10-v60.trc
DataRate	CameraRate	NumFrames	NumMarkers	Units	OrigDataRate	OrigDataStartFrame	OrigNumFrames
100.00	100.00	      17	9	mm	100.00	2626	      7000
Frame#	Time	front left toe			Front right toe			aft left toe			aft right toe			Arm			FL body			FR body			AL Body			AR Body			
		X1	Y1	Z1	X2	Y2	Z2	X3	Y3	Z3	X4	Y4	Z4	X5	Y5	Z5	X6	Y6	Z6	X7	Y7	Z7	X8	Y8	Z8	X9	Y9	Z9	

2626	26.250	-164.19569	114.47299	-418.73648	217.85078	22.41832	-443.16040	-201.71849	18.19563	120.22227	159.40129	16.79351	164.28642	-1.71428	745.77563	-745.06799	-32.48043	602.74567	-486.54523	122.38602	607.88232	-478.86990	-78.41574	546.54175	394.67053	62.64843	551.66449	403.17828	
2627	26.260	-164.99916	102.51205	-419.17606	216.70190	22.10439	-443.61801	-202.27684	18.26004	120.17773	159.15051	16.90142	164.30247	-3.32471	745.68335	-745.48413	-34.02319	602.70331	-486.91742	120.70142	608.21216	-479.60623	-79.06979	546.44598	394.41031	62.05152	551.58905	402.74329	
2628	26.270	-165.68030	91.68755	-420.18921	215.80054	21.88425	-443.99857	-202.71793	18.34748	120.21658	158.68399	16.85781	164.25600	-4.90966	745.96161	-745.96130	-35.92904	602.51556	-487.37592	118.77752	608.39679	-480.24136	-79.64066	546.32019	393.99112	61.35281	551.73248	401.94208	
2629	26.280	-166.65910	80.94463	-420.35977	215.11533	22.20027	-444.25012	-203.03839	18.39674	120.30398	157.94637	16.71182	164.03941	-5.54195	746.19995	-746.70856	-38.82344	602.45465	-487.81543	116.02575	608.45532	-481.10413	-79.96606	546.16046	393.60889	61.04934	551.99353	401.48813	
2630	26.290	-167.95531	69.85960	-420.79443	213.84285	22.16896	-444.81696	-203.76056	18.83310	120.21691	157.37927	16.65152	163.68930	-5.64958	746.29120	-747.51782	-41.51650	602.19733	-488.33298	113.36776	608.57410	-481.97351	-80.17924	546.14545	393.31970	60.82677	552.25494	400.56497	
2631	26.300	-169.86536	59.79051	-421.57828	212.62970	22.00783	-445.11765	-204.43739	19.21926	120.17039	157.12228	16.67643	163.55992	-5.13356	746.37213	-748.06805	-44.89272	602.26520	-488.58902	110.19431	608.76044	-482.92706	-80.59496	546.12152	392.94635	60.35834	552.27502	399.75092	
2632	26.310	-170.98030	49.43454	-422.32886	211.73795	22.15071	-445.26901	-205.18672	19.44664	120.23769	157.15332	16.41861	163.69626	-4.37998	746.49023	-749.01929	-48.08570	602.08417	-489.18579	106.91789	609.12360	-484.05289	-81.43890	545.83850	392.36124	59.63822	552.16772	399.19833	
2633	26.320	-171.90222	38.94313	-423.44351	209.96512	21.90277	-445.75903	-206.43623	19.70809	120.21162	156.94154	15.99305	163.59991	-3.47991	746.47961	-749.91589	-51.25976	602.15570	-489.95135	103.62562	609.11945	-485.04147	-82.65514	545.46320	391.85608	58.68084	551.90948	398.01880	
2634	26.330	-171.57373	28.30089	-423.86218	209.36063	22.45037	-445.63309	-207.25758	19.17988	121.10047	156.32544	15.67684	163.29668	-2.79811	746.56201	-750.62476	-54.32192	602.03241	-490.83536	100.58321	609.14032	-486.22525	-84.36360	545.18835	390.94000	56.78698	552.00647	396.87878	
2635	26.340	-171.78192	21.44152	-426.54269	208.30110	21.84476	-445.93048	-207.80829	18.46966	120.92846	155.03545	15.82927	162.89246	-1.88353	746.41266	-751.03754	-57.29007	601.72968	-492.18915	97.46732	608.92072	-487.47220	-86.84518	545.49799	389.68680	54.26674	552.07043	395.74722	
2636	26.350	-173.58946	19.85946	-426.03534	206.93417	21.31423	-446.21155	-209.12712	18.75814	120.22653	153.97462	15.90274	162.67790	-1.77217	746.49652	-751.59082	-60.02033	602.14374	-493.67029	94.75364	609.08423	-489.01462	-89.68338	545.88068	388.32388	51.14697	552.78174	394.23199	
2637	26.360	-175.58047	19.34927	-424.22409	206.01794	21.82889	-447.87115	-210.24628	17.10215	120.09493	157.04163	20.46966	160.97458	-1.85163	746.39490	-751.54688	-62.86947	602.94769	-495.14218	92.43961	609.70776	-490.30377	-93.07474	546.46411	386.73798	47.94978	553.06030	392.87192	
2638	26.370	-176.36369	18.83662	-425.66321	205.14955	22.15299	-447.16959	-212.28828	16.76423	119.82833	154.58812	21.29740	162.49582	-2.17409	746.31921	-751.61786	-64.89248	604.49158	-496.56866	90.23846	609.89044	-491.68430	-95.60441	547.32440	385.38571	44.99406	553.11853	391.24777	
2639	26.380	-177.14661	19.14739	-425.62048	203.57698	21.74228	-447.75031	-213.68338	16.77341	119.51436	152.93465	20.22425	164.87773	-3.70961	746.67175	-751.64014	-66.74353	605.80450	-497.92444	88.34846	610.10474	-493.05396	-99.24886	547.77838	383.73245	41.78453	552.25409	390.10495	
2640	26.390	-177.52391	18.95062	-425.97159	203.15561	21.69250	-447.13428	-213.91644	17.04268	119.22779	150.39548	20.72695	163.76694	-4.80121	746.66998	-751.68097	-68.45347	606.48022	-499.52121	86.77167	610.18433	-494.17874	-102.52333	549.02527	382.21048	39.11114	552.89355	388.71851	
2641	26.400	-178.37041	18.39876	-426.54099	202.17712	20.75652	-447.56989	-214.71693	16.79419	118.88995	148.83617	21.40639	163.71606	-5.00608	746.58441	-751.81274	-70.03448	607.18970	-500.91113	85.11104	609.97601	-495.45401	-104.92208	550.34607	380.89844	35.94417	553.36298	387.42627	
2642	26.410	-179.43678	17.86630	-426.81161	201.49261	20.63290	-447.59763	-216.28725	16.81156	118.71990	147.92252	21.37781	163.55984	-4.84952	746.57355	-751.56738	-71.60732	607.66040	-502.23282	83.35568	610.03754	-496.65445	-107.44765	551.16742	379.54337	33.51465	554.14319	386.35928	
